<?xml version="1.0" encoding="UTF-8" standalone="no"?><!-- Created with Inkscape (http://www.inkscape.org/) -->

<svg xmlns:inkscape="http://www.inkscape.org/namespaces/inkscape"
    xmlns:sodipodi="http://sodipodi.sourceforge.net/DTD/sodipodi-0.dtd"
    width="192"
    height="192"
    viewBox="0 0 50.799999 50.8"
    version="1.1"
    id="svg5"
    inkscape:version="1.1 (c4e8f9e, 2021-05-24)"
    sodipodi:docname="helple_app_icon.svg"
    xmlns="http://www.w3.org/2000/svg">
  <sodipodi:namedview id="namedview7"
      pagecolor="#ffffff"
      bordercolor="#666666"
      borderopacity="1.0"
      inkscape:pageshadow="2"
      inkscape:pageopacity="0.0"
      inkscape:pagecheckerboard="0"
      inkscape:document-units="mm"
      showgrid="false"
      units="px"
      inkscape:zoom="2.2445232"
      inkscape:cx="116.72858"
      inkscape:cy="101.13507"
      inkscape:window-width="1792"
      inkscape:window-height="1120"
      inkscape:window-x="0"
      inkscape:window-y="0"
      inkscape:window-maximized="0"
      inkscape:current-layer="layer1" />
  <defs id="defs2">
    <inkscape:path-effect effect="bspline"
        id="path-effect1929"
        is_visible="true"
        lpeversion="1"
        weight="33.333333"
        steps="2"
        helper_size="0"
        apply_no_weight="true"
        apply_with_weight="true"
        only_selected="false" />
    <inkscape:path-effect effect="fill_between_many"
        method="originald"
        linkedpaths="#path3331,0,1"
        id="path-effect6401"
        join="true"
        close="true"
        autoreverse="true" />
    <inkscape:path-effect effect="fill_between_many"
        method="originald"
        linkedpaths="#path3331,0,1"
        id="path-effect6364"
        join="true"
        close="true"
        autoreverse="true" />
    <inkscape:path-effect effect="bspline"
        id="path-effect3333"
        is_visible="true"
        lpeversion="1"
        weight="33.333333"
        steps="2"
        helper_size="0"
        apply_no_weight="true"
        apply_with_weight="true"
        only_selected="false" />
    <inkscape:path-effect effect="fill_between_many"
        method="originald"
        linkedpaths="#path3331,0,1"
        id="path-effect3411"
        join="true"
        close="true"
        autoreverse="true" />
    <inkscape:path-effect effect="fill_between_many"
        method="originald"
        linkedpaths="#path1927,0,1|"
        id="path-effect1988"
        join="true"
        close="true"
        autoreverse="true" />
  </defs>
  <g inkscape:label="Warstwa 1"
      inkscape:groupmode="layer"
      id="layer1">
    <rect style="fill:#8bc34a;fill-opacity:0.85490197;stroke:none;stroke-width:0.2;stroke-opacity:0.993776"
        id="rect3900"
        width="53.635185"
        height="53.870945"
        x="-1.5324339"
        y="-1.6503134" />
    <path style="fill:#464b4b;fill-opacity:0.294606;stroke:none;stroke-width:0.239609px;stroke-linecap:butt;stroke-linejoin:miter;stroke-opacity:1"
        id="path1927"
        d="M 5.4115356,8.8472583 V 23.337102 l 4.4496293,4.125784 H 4.9477589 V 41.952728 L 43.956028,81.648893 86.108475,80.758336 82.100928,39.61239 45.852245,8.8472644 H 27.740175 V 12.428308 L 23.523602,8.8472644 Z"
        sodipodi:nodetypes="ccccccccccccc" />
    <g id="g3521"
        transform="matrix(2.0160888,0,0,2.0160888,-22.556142,-22.834057)">
      <path style="fill:#ffffff;fill-opacity:1;stroke-width:0.154777"
          id="rect914"
          d="m 13.872243,15.714249 v 7.187106 h 3.169922 v -1.86537 -3.456366 h 0.459611 v 1.35562 h 1.724701 v -1.35562 h 0.459611 v 1.35562 h 3.169921 v -3.22099 z m 3.629533,3.629533 v 1.692203 1.86537 h 5.354233 v -3.557573 h -3.169921 v 1.692203 h -0.459611 v -1.692203 z" />
      <path style="fill:#ffffff;fill-opacity:1;stroke-width:0.154777"
          id="rect914-2"
          d="m 24.947471,15.714249 v 3.22099 h 3.353301 v -1.35562 h 2.277163 v 0.408543 h -1.817552 v 0.947077 h 1.817552 v 0.408543 h -1.817552 v 1.28366 h 1.817552 v 0.408543 h -1.817552 v 1.86537 h 5.170854 v -7.187106 z m 0,3.629533 v 3.557573 h 3.353301 v -1.86537 -0.408543 -1.28366 z" />
      <path style="fill:#ffffff;fill-opacity:1;stroke-width:0.154777"
          id="rect914-2-3"
          d="m 13.642205,24.947785 v 7.187105 h 8.983766 v -7.187105 h -5.124195 v 2.496058 h -0.0014 v 2.417134 h 1.727022 v 0.408544 h -2.186637 v -3.456367 h 0.0014 v -1.865369 z" />
      <path style="fill:#ffffff;fill-opacity:1;stroke-width:0.154777"
          id="rect914-2-3-6"
          d="m 24.939346,24.947785 v 7.187105 h 8.983767 v -7.187105 h -5.16273 v 1.865369 h 0.478182 c 0.207365,0 0.383009,0.0178 0.526927,0.05339 0.143918,0.03405 0.271589,0.08821 0.383009,0.162487 0.131537,0.08821 0.2329,0.198082 0.304086,0.329621 0.07273,0.131538 0.1091,0.297897 0.1091,0.499072 0,0.153203 -0.02708,0.295575 -0.08124,0.427113 -0.05262,0.129991 -0.126897,0.242959 -0.222842,0.338905 -0.119159,0.119158 -0.259983,0.208915 -0.422471,0.269268 -0.162489,0.05881 -0.367535,0.08821 -0.615136,0.08821 h -0.459611 v 1.288303 h -0.459615 v -3.234221 -0.222146 -1.865369 z m 3.821037,2.259985 v 1.381153 h 0.387652 c 0.1857,0 0.336583,-0.01624 0.452647,-0.04875 0.116063,-0.03405 0.210462,-0.08743 0.283194,-0.160168 0.07273,-0.07428 0.123801,-0.15243 0.153205,-0.234449 0.03095,-0.08202 0.04643,-0.174094 0.04643,-0.276229 0,-0.119158 -0.02089,-0.222843 -0.06267,-0.311051 -0.04178,-0.08821 -0.105231,-0.160166 -0.190344,-0.215876 -0.07428,-0.04797 -0.159394,-0.08202 -0.255339,-0.102136 -0.0944,-0.02167 -0.214331,-0.0325 -0.359798,-0.0325 z" />
    </g>
  </g>
</svg>
